# xmcd
#
# Track frame offsets: 
#        150
#        19713
#        39133
#        61445
#        92215
#        109586
#        126824
#        141532
#        155580
#        174681
#
# Disc length: 2563 seconds
#
# Revision: 2
# Processed by: cddbd v1.5.1PL0 Copyright (c) Steve Scherf et al.
# Submitted via: ExactAudioCopy v0.95a4
#
DISCID=850a010a
DTITLE=Chris Rea - Dancing Down The Stony Road - Disc 2
DYEAR=2002
DGENRE=Rock
TTITLE0=Ride On
TTITLE1=When the Good Lord Talked To Jesus
TTITLE2=Qualified
TTITLE3=Sun Is Rising
TTITLE4=Someday My Peace Will Come
TTITLE5=Got To Be Moving On
TTITLE6=Ain't Going Down This Way
TTITLE7=Changing Times
TTITLE8=The Hustler
TTITLE9=Give That Girl A Diamond
EXTD=
EXTT0=
EXTT1=
EXTT2=
EXTT3=
EXTT4=
EXTT5=
EXTT6=
EXTT7=
EXTT8=
EXTT9=
PLAYORDER=
